<?xml version="1.0" encoding="UTF-8" standalone="no"?>
<svg
   xmlns:dc="http://purl.org/dc/elements/1.1/"
   xmlns:cc="http://creativecommons.org/ns#"
   xmlns:rdf="http://www.w3.org/1999/02/22-rdf-syntax-ns#"
   xmlns:svg="http://www.w3.org/2000/svg"
   xmlns="http://www.w3.org/2000/svg"
   xmlns:sodipodi="http://sodipodi.sourceforge.net/DTD/sodipodi-0.dtd"
   xmlns:inkscape="http://www.inkscape.org/namespaces/inkscape"
   viewBox="0 0 75 50"
   version="1.1"
   id="svg86"
   sodipodi:docname="barcode.svg"
   inkscape:version="1.0 (4035a4fb49, 2020-05-01)">
  <metadata
     id="metadata90">
    <rdf:RDF>
      <cc:Work
         rdf:about="">
        <dc:format>image/svg+xml</dc:format>
        <dc:type
           rdf:resource="http://purl.org/dc/dcmitype/StillImage" />
        <dc:title></dc:title>
      </cc:Work>
    </rdf:RDF>
  </metadata>
  <sodipodi:namedview
     showborder="false"
     inkscape:pagecheckerboard="true"
     inkscape:document-rotation="0"
     pagecolor="#ffffff"
     bordercolor="#666666"
     borderopacity="1"
     objecttolerance="10"
     gridtolerance="10"
     guidetolerance="10"
     inkscape:pageopacity="0"
     inkscape:pageshadow="2"
     inkscape:window-width="1920"
     inkscape:window-height="1051"
     id="namedview88"
     showgrid="false"
     inkscape:zoom="6.2083975"
     inkscape:cx="48.368615"
     inkscape:cy="-6.1405625"
     inkscape:window-x="-9"
     inkscape:window-y="-9"
     inkscape:window-maximized="1"
     inkscape:current-layer="svg86" />
  <defs
     id="defs2">.fil3 {fill:none}     .fil1 {fill:black}     .fil0 {fill:white}     .fil2 {fill:black;fill-rule:nonzero}</defs>
  <g
     transform="matrix(1.029821,0,0,1.029821,-0.95721023,5.9565817)"
     id="g911">
    <polygon
       style="fill:#ffffff"
       id="polygon4"
       points="3.8258,37.069 3.8258,2.1803 4.6633,2.1803 4.6633,37.069 "
       class="fil1" />
    <polygon
       style="fill:#ffffff"
       id="polygon6"
       points="5.2217,37.069 5.2217,2.1803 5.5706,2.1803 5.5706,37.069 "
       class="fil1" />
    <polygon
       style="fill:#ffffff"
       id="polygon8"
       points="6.6174,37.069 6.6174,2.1803 6.9663,2.1803 6.9663,37.069 "
       class="fil1" />
    <polygon
       style="fill:#ffffff"
       id="polygon10"
       points="8.9555,37.069 8.9555,2.1803 10.7,2.1803 10.7,37.069 "
       class="fil1" />
    <polygon
       style="fill:#ffffff"
       id="polygon12"
       points="11.293,37.069 11.293,2.1803 11.642,2.1803 11.642,37.069 "
       class="fil1" />
    <polygon
       style="fill:#ffffff"
       id="polygon14"
       points="12.201,37.069 12.201,2.1803 13.492,2.1803 13.492,37.069 "
       class="fil1" />
    <polygon
       style="fill:#ffffff"
       id="polygon16"
       points="14.085,37.069 14.085,2.1803 15.341,2.1803 15.341,37.069 "
       class="fil1" />
    <polygon
       style="fill:#ffffff"
       id="polygon18"
       points="15.934,37.069 15.934,2.1803 16.283,2.1803 16.283,37.069 "
       class="fil1" />
    <polygon
       style="fill:#ffffff"
       id="polygon20"
       points="17.784,37.069 17.784,2.1803 18.622,2.1803 18.622,37.069 "
       class="fil1" />
    <polygon
       style="fill:#ffffff"
       id="polygon22"
       points="19.18,37.069 19.18,2.1803 19.529,2.1803 19.529,37.069 "
       class="fil1" />
    <polygon
       style="fill:#ffffff"
       id="polygon24"
       points="21.518,37.069 21.518,2.1803 22.32,2.1803 22.32,37.069 "
       class="fil1" />
    <polygon
       style="fill:#ffffff"
       id="polygon26"
       points="22.914,37.069 22.914,2.1803 23.262,2.1803 23.262,37.069 "
       class="fil1" />
    <polygon
       style="fill:#ffffff"
       id="polygon28"
       points="24.309,37.069 24.309,2.1803 25.112,2.1803 25.112,37.069 "
       class="fil1" />
    <polygon
       style="fill:#ffffff"
       id="polygon30"
       points="27.101,37.069 27.101,2.1803 27.45,2.1803 27.45,37.069 "
       class="fil1" />
    <polygon
       style="fill:#ffffff"
       id="polygon32"
       points="28.497,37.069 28.497,2.1803 28.846,2.1803 28.846,37.069 "
       class="fil1" />
    <polygon
       style="fill:#ffffff"
       id="polygon34"
       points="29.439,37.069 29.439,2.1803 29.788,2.1803 29.788,37.069 "
       class="fil1" />
    <polygon
       style="fill:#ffffff"
       id="polygon36"
       points="31.742,37.069 31.742,2.1803 32.58,2.1803 32.58,37.069 "
       class="fil1" />
    <polygon
       style="fill:#ffffff"
       id="polygon38"
       points="33.138,37.069 33.138,2.1803 33.487,2.1803 33.487,37.069 "
       class="fil1" />
    <polygon
       style="fill:#ffffff"
       id="polygon40"
       points="34.534,37.069 34.534,2.1803 34.883,2.1803 34.883,37.069 "
       class="fil1" />
    <polygon
       style="fill:#ffffff"
       id="polygon42"
       points="35.476,37.069 35.476,2.1803 35.825,2.1803 35.825,37.069 "
       class="fil1" />
    <polygon
       style="fill:#ffffff"
       id="polygon44"
       points="36.872,37.069 36.872,2.1803 38.617,2.1803 38.617,37.069 "
       class="fil1" />
    <polygon
       style="fill:#ffffff"
       id="polygon46"
       points="39.663,37.069 39.663,2.1803 40.012,2.1803 40.012,37.069 "
       class="fil1" />
    <polygon
       style="fill:#ffffff"
       id="polygon48"
       points="40.606,37.069 40.606,2.1803 41.408,2.1803 41.408,37.069 "
       class="fil1" />
    <polygon
       style="fill:#ffffff"
       id="polygon50"
       points="42.455,37.069 42.455,2.1803 42.804,2.1803 42.804,37.069 "
       class="fil1" />
    <polygon
       style="fill:#ffffff"
       id="polygon52"
       points="44.793,37.069 44.793,2.1803 45.142,2.1803 45.142,37.069 "
       class="fil1" />
    <polygon
       style="fill:#ffffff"
       id="polygon54"
       points="47.096,37.069 47.096,2.1803 47.445,2.1803 47.445,37.069 "
       class="fil1" />
    <polygon
       style="fill:#ffffff"
       id="polygon56"
       points="48.492,37.069 48.492,2.1803 49.329,2.1803 49.329,37.069 "
       class="fil1" />
    <polygon
       style="fill:#ffffff"
       id="polygon58"
       points="49.888,37.069 49.888,2.1803 50.237,2.1803 50.237,37.069 "
       class="fil1" />
    <polygon
       style="fill:#ffffff"
       id="polygon60"
       points="52.226,37.069 52.226,2.1803 53.028,2.1803 53.028,37.069 "
       class="fil1" />
    <polygon
       style="fill:#ffffff"
       id="polygon62"
       points="53.622,37.069 53.622,2.1803 53.97,2.1803 53.97,37.069 "
       class="fil1" />
    <polygon
       style="fill:#ffffff"
       id="polygon64"
       points="55.017,37.069 55.017,2.1803 55.366,2.1803 55.366,37.069 "
       class="fil1" />
    <polygon
       style="fill:#ffffff"
       id="polygon66"
       points="56.413,37.069 56.413,2.1803 56.762,2.1803 56.762,37.069 "
       class="fil1" />
    <polygon
       style="fill:#ffffff"
       id="polygon68"
       points="57.355,37.069 57.355,2.1803 58.158,2.1803 58.158,37.069 "
       class="fil1" />
    <polygon
       style="fill:#ffffff"
       id="polygon70"
       points="60.147,37.069 60.147,2.1803 60.496,2.1803 60.496,37.069 "
       class="fil1" />
    <polygon
       style="fill:#ffffff"
       id="polygon72"
       points="61.054,37.069 61.054,2.1803 62.799,2.1803 62.799,37.069 "
       class="fil1" />
    <polygon
       style="fill:#ffffff"
       id="polygon74"
       points="63.392,37.069 63.392,2.1803 64.683,2.1803 64.683,37.069 "
       class="fil1" />
    <polygon
       style="fill:#ffffff"
       id="polygon76"
       points="65.242,37.069 65.242,2.1803 66.079,2.1803 66.079,37.069 "
       class="fil1" />
    <polygon
       style="fill:#ffffff"
       id="polygon78"
       points="67.58,37.069 67.58,2.1803 68.871,2.1803 68.871,37.069 "
       class="fil1" />
    <polygon
       style="fill:#ffffff"
       id="polygon80"
       points="69.429,37.069 69.429,2.1803 69.778,2.1803 69.778,37.069 "
       class="fil1" />
    <polygon
       style="fill:#ffffff"
       id="polygon82"
       points="70.371,37.069 70.371,2.1803 71.174,2.1803 71.174,37.069 "
       class="fil1" />
    <polygon
       id="polygon84"
       fill="none"
       points="-0.30927,43.314 -0.30927,1.7268 75.309,1.7268 75.309,43.314 "
       class="fil3" />
  </g>
</svg>
