<?xml version="1.0" encoding="UTF-8" standalone="no"?>
<svg
   xmlns:dc="http://purl.org/dc/elements/1.1/"
   xmlns:cc="http://creativecommons.org/ns#"
   xmlns:rdf="http://www.w3.org/1999/02/22-rdf-syntax-ns#"
   xmlns:svg="http://www.w3.org/2000/svg"
   xmlns="http://www.w3.org/2000/svg"
   xmlns:sodipodi="http://sodipodi.sourceforge.net/DTD/sodipodi-0.dtd"
   xmlns:inkscape="http://www.inkscape.org/namespaces/inkscape"
   inkscape:version="1.0 (4035a4fb49, 2020-05-01)"
   sodipodi:docname="keyboard.svg"
   id="svg8"
   version="1.1"
   xml:space="preserve"
   viewBox="0 0 5329 1789"
   text-rendering="geometricPrecision"
   shape-rendering="geometricPrecision"
   image-rendering="optimizeQuality"
   fill-rule="evenodd"
   clip-rule="evenodd"><metadata
   id="metadata12"><rdf:RDF><cc:Work
       rdf:about=""><dc:format>image/svg+xml</dc:format><dc:type
         rdf:resource="http://purl.org/dc/dcmitype/StillImage" /></cc:Work></rdf:RDF></metadata><sodipodi:namedview
   inkscape:current-layer="svg8"
   inkscape:window-maximized="1"
   inkscape:window-y="-9"
   inkscape:window-x="-9"
   inkscape:cy="894.5"
   inkscape:cx="2664.5"
   inkscape:zoom="0.2471383"
   showgrid="false"
   id="namedview10"
   inkscape:window-height="1051"
   inkscape:window-width="1920"
   inkscape:pageshadow="2"
   inkscape:pageopacity="0"
   guidetolerance="10"
   gridtolerance="10"
   objecttolerance="10"
   borderopacity="1"
   bordercolor="#666666"
   pagecolor="#ffffff" />
 <defs
   id="defs4">
  <style
   id="style2"
   type="text/css">
    .fil0 {fill:black}
  </style>
 </defs>
  <path
   style="fill:#ffffff"
   id="path6"
   d="m551 1789h-493c-32 0-58-26-58-58v-249c0-32 26-58 58-58h493c32 0 58 26 58 58v249c0 32-26 58-58 58zm1245-480h-251c-32 0-58-26-58-58v-249c0-32 26-58 58-58h251c32 0 58 26 58 58v249c0 32-26 58-58 58zm2348 3h-251c-32 0-58-26-58-58v-249c0-32 26-58 58-58h251c32 0 58 26 58 58v249c0 32-26 58-58 58zm-470-1h-251c-32 0-58-26-58-58v-249c0-32 26-58 58-58h251c32 0 58 26 58 58v249c0 32-26 58-58 58zm-470-1h-251c-32 0-58-26-58-58v-249c0-32 26-58 58-58h251c32 0 58 26 58 58v249c0 32-26 58-58 58zm-470-1h-251c-32 0-58-26-58-58v-249c0-32 26-58 58-58h251c32 0 58 26 58 58v249c0 32-26 58-58 58zm-470-1h-251c-32 0-58-26-58-58v-249c0-32 26-58 58-58h251c32 0 58 26 58 58v249c0 32-26 58-58 58zm-939-1h-251c-32 0-58-26-58-58v-249c0-32 26-58 58-58h251c32 0 58 26 58 58v249c0 32-26 58-58 58zm3078-468h-251c-32 0-58-26-58-58v-249c0-32 26-58 58-58h251c32 0 58 26 58 58v249c0 32-26 58-58 58zm-470-1h-251c-32 0-58-26-58-58v-249c0-32 26-58 58-58h251c32 0 58 26 58 58v249c0 32-26 58-58 58zm-470-1h-251c-32 0-58-26-58-58v-249c0-32 26-58 58-58h251c32 0 58 26 58 58v249c0 32-26 58-58 58zm-470-1h-251c-32 0-58-26-58-58v-249c0-32 26-58 58-58h251c32 0 58 26 58 58v249c0 32-26 58-58 58zm-470-1h-251c-32 0-58-26-58-58v-249c0-32 26-58 58-58h251c32 0 58 26 58 58v249c0 32-26 58-58 58zm-470-1h-251c-32 0-58-26-58-58v-249c0-32 26-58 58-58h251c32 0 58 26 58 58v249c0 32-26 58-58 58zm-470-1h-251c-32 0-58-26-58-58v-249c0-32 26-58 58-58h251c32 0 58 26 58 58v249c0 32-26 58-58 58zm-470-1h-251c-32 0-58-26-58-58v-249c0-32 26-58 58-58h251c32 0 58 26 58 58v249c0 32-26 58-58 58zm2948-466h-251c-32 0-58-26-58-58v-249c0-32 26-58 58-58h251c32 0 58 26 58 58v249c0 32-26 58-58 58zm-470-1h-251c-32 0-58-26-58-58v-249c0-32 26-58 58-58h251c32 0 58 26 58 58v249c0 32-26 58-58 58zm-470-1h-251c-32 0-58-26-58-58v-249c0-32 26-58 58-58h251c32 0 58 26 58 58v249c0 32-26 58-58 58zm-470-1h-251c-32 0-58-26-58-58v-249c0-32 26-58 58-58h251c32 0 58 26 58 58v249c0 32-26 58-58 58zm-470-1h-251c-32 0-58-26-58-58v-249c0-32 26-58 58-58h251c32 0 58 26 58 58v249c0 32-26 58-58 58zm-470-1h-251c-32 0-58-26-58-58v-249c0-32 26-58 58-58h251c32 0 58 26 58 58v249c0 32-26 58-58 58zm-470-1h-251c-32 0-58-26-58-58v-249c0-32 26-58 58-58h251c32 0 58 26 58 58v249c0 32-26 58-58 58zm-470-1h-251c-32 0-58-26-58-58v-249c0-32 26-58 58-58h251c32 0 58 26 58 58v249c0 32-26 58-58 58zm-470-1h-251c-32 0-58-26-58-58v-249c0-32 26-58 58-58h251c32 0 58 26 58 58v249c0 32-26 58-58 58zm4962 11h-976c-32 0-58-26-58-58v-249c0-32 26-58 58-58h976c32 0 58 26 58 58v249c0 32-26 58-58 58zm0 942h-900c-32 0-58-26-58-58v-249c0-32 26-58 58-58h900c32 0 58 26 58 58v249c0 32-26 58-58 58zm0-482h-636c-32 0-58-26-58-58v-249c0-32 26-58 58-58h636c32 0 58 26 58 58v249c0 32-26 58-58 58zm-4624 0h-590c-32 0-58-26-58-58v-249c0-32 26-58 58-58h590c32 0 58 26 58 58v249c0 32-26 58-58 58zm209 471h-798c-32 0-58-26-58-58v-249c0-32 26-58 58-58h798c32 0 58 26 58 58v249c0 32-26 58-58 58zm3350 116h348c32 0 58 26 58 58v249c0 32-26 58-58 58h-348c-32 0-58-26-58-58v-249c0-32 26-58 58-58zm568 0h493c32 0 58 26 58 58v249c0 32-26 58-58 58h-493c-32 0-58-26-58-58v-249c0-32 26-58 58-58zm-786 365h-2651c-32 0-58-26-58-58v-249c0-32 26-58 58-58h2651c32 0 58 26 58 58v249c0 32-26 58-58 58zm-2869 0h-348c-32 0-58-26-58-58v-249c0-32 26-58 58-58h348c32 0 58 26 58 58v249c0 32-26 58-58 58z"
   class="fil0" />
</svg>
