<?xml version="1.0" encoding="UTF-8" standalone="no"?>
<svg
   xmlns:dc="http://purl.org/dc/elements/1.1/"
   xmlns:cc="http://creativecommons.org/ns#"
   xmlns:rdf="http://www.w3.org/1999/02/22-rdf-syntax-ns#"
   xmlns:svg="http://www.w3.org/2000/svg"
   xmlns="http://www.w3.org/2000/svg"
   xmlns:sodipodi="http://sodipodi.sourceforge.net/DTD/sodipodi-0.dtd"
   xmlns:inkscape="http://www.inkscape.org/namespaces/inkscape"
   viewBox="0 0 2000 2000"
   version="1.1"
   id="svg12"
   sodipodi:docname="student.svg"
   inkscape:version="1.0 (4035a4fb49, 2020-05-01)"
   width="2000"
   height="2000">
  <metadata
     id="metadata18">
    <rdf:RDF>
      <cc:Work
         rdf:about="">
        <dc:format>image/svg+xml</dc:format>
        <dc:type
           rdf:resource="http://purl.org/dc/dcmitype/StillImage" />
        <dc:title />
      </cc:Work>
    </rdf:RDF>
  </metadata>
  <defs
     id="defs16" />
  <sodipodi:namedview
     inkscape:document-rotation="0"
     pagecolor="#ffffff"
     bordercolor="#666666"
     borderopacity="1"
     objecttolerance="10"
     gridtolerance="10"
     guidetolerance="10"
     inkscape:pageopacity="0"
     inkscape:pageshadow="2"
     inkscape:window-width="1920"
     inkscape:window-height="1051"
     id="namedview14"
     showgrid="false"
     inkscape:zoom="0.11357657"
     inkscape:cx="-967.40273"
     inkscape:cy="666.98773"
     inkscape:window-x="-9"
     inkscape:window-y="-9"
     inkscape:window-maximized="1"
     inkscape:current-layer="g10" />
  <g
     style="fill:#000000"
     fill="#fff"
     id="g10">
    <g
       id="g840"
       transform="matrix(17.25358,0,0,17.25358,-65.839972,-65.75364)"
       style="fill:#ffffff">
      <path
         id="path4"
         d="m 61.30405,38.843379 c 8.930826,0 16.140979,-7.256594 16.140979,-16.177894 0,-8.930826 -7.210153,-16.1493146 -16.140979,-16.1493146 -8.930826,0 -16.149315,7.2184886 -16.149315,16.1493146 -0.0012,8.9213 7.218489,16.177894 16.149315,16.177894 z"
         style="fill:#ffffff;stroke-width:1.19078" />
      <path
         id="path6"
         d="m 77.006823,42.778896 c 7.386389,0.26078 10.493125,6.17775 10.493125,6.17775 L 111.34287,81.67562 c 0.98597,1.451557 1.5623,3.228196 1.5623,5.144156 0,5.08819 -4.12128,9.218994 -9.20947,9.218994 -1.21816,0 -2.32558,-0.270306 -3.37704,-0.669216 L 85.926932,91.350682 V 105.71383 H 35.961938 V 91.349491 l -14.391729,4.018872 c -1.014541,0.400101 -2.157687,0.669216 -3.386569,0.669216 -5.088189,0 -9.2011322,-4.130804 -9.2011322,-9.218994 0,-1.915959 0.5680005,-3.693789 1.6004042,-5.144155 L 34.407974,48.955456 c 0,0 3.125789,-5.91697 10.48479,-6.17775 H 77.006823 Z M 60.950389,95.68511 79.59319,89.489498 79.183563,89.406143 C 66.308885,85.628999 71.313719,68.623516 84.16101,72.418522 l 1.767113,0.61444 v -19.19294 l -24.977734,8.158012 -24.98726,-8.159203 v 19.19175 l 1.758777,-0.614441 c 12.866343,-3.796196 17.880704,13.210478 5.004835,16.987622 l -0.419154,0.08335 z"
         style="fill:#ffffff;stroke-width:1.19078" />
      <path
         id="path8"
         d="m 112.2693,117.02383 c 1.27413,0 2.2982,-1.02288 2.2982,-2.2982 0,-1.28366 -1.02288,-2.2982 -2.2982,-2.2982 H 11.434317 c -1.246743,0 -2.298199,1.01454 -2.298199,2.2982 0,1.27413 1.051456,2.2982 2.298199,2.2982 z"
         style="fill:#ffffff;stroke-width:1.19078" />
    </g>
  </g>
</svg>
