<?xml version="1.0" encoding="UTF-8" standalone="no"?>
<svg
   xmlns:dc="http://purl.org/dc/elements/1.1/"
   xmlns:cc="http://creativecommons.org/ns#"
   xmlns:rdf="http://www.w3.org/1999/02/22-rdf-syntax-ns#"
   xmlns:svg="http://www.w3.org/2000/svg"
   xmlns="http://www.w3.org/2000/svg"
   xmlns:sodipodi="http://sodipodi.sourceforge.net/DTD/sodipodi-0.dtd"
   xmlns:inkscape="http://www.inkscape.org/namespaces/inkscape"
   inkscape:version="1.0 (4035a4fb49, 2020-05-01)"
   sodipodi:docname="user.svg"
   id="svg13"
   viewBox="0 0 9144 9144"
   style="shape-rendering:geometricPrecision; text-rendering:geometricPrecision; image-rendering:optimizeQuality; fill-rule:evenodd; clip-rule:evenodd"
   version="1.1"
   height="91.44mm"
   width="91.44mm">
  <metadata
     id="metadata17">
    <rdf:RDF>
      <cc:Work
         rdf:about="">
        <dc:format>image/svg+xml</dc:format>
        <dc:type
           rdf:resource="http://purl.org/dc/dcmitype/StillImage" />
      </cc:Work>
    </rdf:RDF>
  </metadata>
  <sodipodi:namedview
     inkscape:current-layer="Layer_x0020_1"
     inkscape:window-maximized="1"
     inkscape:window-y="-9"
     inkscape:window-x="-9"
     inkscape:cy="101.40648"
     inkscape:cx="115.4615"
     inkscape:zoom="1.2991898"
     showgrid="false"
     id="namedview15"
     inkscape:window-height="1051"
     inkscape:window-width="1920"
     inkscape:pageshadow="2"
     inkscape:pageopacity="0"
     guidetolerance="10"
     gridtolerance="10"
     objecttolerance="10"
     borderopacity="1"
     bordercolor="#666666"
     pagecolor="#ffffff"
     inkscape:document-rotation="0" />
  <defs
     id="defs4">
    <style
       id="style2"
       type="text/css">  .fil0 {fill:#F0F0F0} .fil1 {fill:#011627;fill-rule:nonzero}  </style>
  </defs>
  <g
     id="Layer_x0020_1">
    <metadata
       id="CorelCorpID_0Corel-Layer" />
    <path
       style="stroke-width:2.0021;fill:#ffffff"
       class="fil1"
       d="m 1322.5919,7999.5951 c -98.1029,0 -176.1848,-80.0841 -176.1848,-176.1848 0,-506.5313 28.0294,-894.9387 130.1365,-1211.2704 H 333.55449 c -96.1008,0 -176.1848,-80.084 -176.1848,-176.1848 0,-468.4915 48.0505,-752.7896 274.2877,-979.0269 194.2037,-194.2037 504.5291,-318.3339 1025.07521,-462.4851 -176.1848,-130.1365 -308.3235,-362.38 -370.3885,-622.653 -44.0463,-180.189 -56.0588,-374.3927 -32.0336,-560.5881 26.0272,-192.2015 94.0986,-378.3968 210.2204,-524.5501 154.1618,-196.2058 388.4074,-322.3381 716.7518,-322.3381 328.3444,0 562.5901,126.1323 716.7518,322.3381 116.1218,146.1533 184.1932,332.3486 210.2205,524.5501 26.0273,186.1954 12.0126,380.3991 -32.0336,560.5881 -62.0651,260.273 -192.2016,492.5165 -368.3864,622.653 142.1491,38.0399 270.2834,78.0819 382.4011,116.1218 130.1365,44.0462 240.252,88.0924 336.3527,136.1428 160.1681,-50.0525 334.3508,-98.1028 520.546,-150.1575 v -184.1931 c -368.3864,-204.2143 -646.6782,-668.7014 -774.8127,-1201.26 -82.086,-334.3508 -106.1113,-696.7308 -60.063,-1043.0941 48.0505,-352.3696 170.1785,-686.7202 380.3991,-952.9996 C 3566.9458,1370.6423 3983.3826,1144.405 4572,1144.405 c 588.6173,0 1005.0541,226.2373 1279.3419,570.5984 210.2204,266.2794 332.3486,600.63 380.3989,952.9996 46.0483,346.3633 22.0232,708.7433 -60.063,1043.0941 -128.1344,532.5586 -406.4263,997.0457 -774.8126,1201.26 v 184.1931 c 186.1953,52.0547 360.3779,100.105 520.5459,150.1575 96.1009,-48.0504 206.2164,-92.0966 336.3529,-136.1428 112.1175,-38.0399 240.2519,-76.0798 382.4011,-116.1218 -176.1849,-130.1365 -306.3214,-362.38 -368.3865,-622.653 -44.0462,-180.189 -58.0609,-374.3927 -32.0336,-560.5881 26.0274,-192.2015 94.0987,-378.3968 210.2205,-524.5501 154.1616,-196.2058 388.4074,-322.3381 716.7518,-322.3381 328.3444,0 562.5901,126.1323 716.7517,322.3381 116.1218,146.1533 184.1932,332.3486 210.2206,524.5501 24.0252,186.1954 12.0125,380.3991 -32.0336,560.5881 -62.0652,260.273 -194.2037,492.5165 -370.3885,622.653 520.5459,144.1512 830.8714,268.2814 1025.0751,462.4851 226.2373,226.2373 274.2878,510.5354 274.2878,979.0269 0,96.1008 -80.0841,176.1848 -176.1849,176.1848 h -942.989 c 102.1071,316.3317 130.1365,704.7391 130.1365,1211.2704 0,96.1007 -78.0819,176.1848 -176.1848,176.1848 z m 6320.6294,-354.3717 c -8.0085,-486.5103 -50.0526,-836.8778 -186.1953,-1105.1592 -10.0105,-14.0147 -18.0189,-30.0314 -24.0252,-46.0483 -46.0483,-84.0882 -104.1092,-162.1701 -176.1848,-232.2435 -334.3507,-334.3507 -961.008,-558.5858 -2074.1755,-856.8988 -80.084,-16.0167 -140.147,-88.0924 -140.147,-172.1806 v -432.4536 c 0,-70.0735 44.0461,-136.1427 112.1176,-164.1721 314.3296,-122.1282 558.5859,-526.5523 674.7076,-1007.0563 72.0757,-294.3086 94.0987,-612.6425 52.0546,-912.9575 -38.0399,-292.3066 -136.1427,-568.5964 -306.3212,-780.819 C 5364.8316,1670.9573 5040.4913,1498.7767 4572,1498.7767 c -468.4914,0 -792.8315,172.1806 -1003.0521,436.4578 -170.1784,212.2226 -268.2814,488.5124 -306.3213,780.819 -42.0441,300.315 -20.0209,618.6489 52.0546,912.9575 114.1197,476.4998 356.3739,876.9198 664.6972,1003.0521 70.0735,24.0251 122.1282,90.0944 122.1282,168.1763 v 432.4536 c 0,78.082 -52.0547,148.1554 -132.1387,170.1786 -1119.1738,300.315 -1747.8332,522.5479 -2082.1839,858.9008 -72.0756,70.0734 -130.1364,148.1553 -176.1848,232.2435 -6.0062,16.0169 -14.0146,32.0336 -24.0251,44.0463 -136.1429,270.2834 -178.187,620.6509 -186.1954,1107.1612 z M 1438.7136,6257.7681 c 56.0588,-86.0902 120.126,-168.1763 198.208,-244.2562 236.2477,-236.2476 572.6004,-418.4388 1063.115,-594.6236 -126.1323,-40.042 -270.2835,-82.0861 -436.4578,-126.1323 -78.0819,-22.0231 -130.1365,-92.0966 -130.1365,-170.1785 v -218.2288 c 0,-78.082 50.0525,-144.1512 120.126,-168.1765 128.1344,-56.0588 230.2415,-234.2456 280.294,-446.4682 34.0357,-140.147 44.0462,-290.3045 26.0273,-430.4515 -18.0188,-134.1407 -62.0651,-258.2709 -138.1448,-354.3717 -90.0946,-114.1198 -232.2437,-188.1975 -440.4621,-188.1975 -206.2162,0 -350.3674,74.0777 -440.462,188.1975 -76.0797,96.1008 -120.126,220.231 -138.1449,354.3717 -18.0189,140.147 -8.0084,290.3045 26.0274,430.4515 52.0545,218.2288 158.1658,398.4178 288.3023,450.4724 70.0735,26.0274 112.1176,92.0966 112.1176,164.1723 v 218.2288 c 0,84.0882 -60.063,156.1638 -140.147,172.1806 -546.5732,146.1533 -850.89241,254.2667 -1007.05631,410.4305 -118.1238,118.1239 -158.1658,286.3003 -168.1763,552.5795 z m 5005.2498,-838.8798 c 490.5145,176.1848 826.8673,358.376 1063.1151,594.6236 78.0819,76.0799 142.149,158.166 198.2078,244.2562 h 924.9703 c -10.0106,-266.2792 -50.0525,-434.4556 -168.1765,-552.5795 -156.1638,-156.1638 -460.4829,-264.2772 -1007.0563,-410.4305 -80.0839,-16.0168 -140.1469,-88.0924 -140.1469,-172.1806 v -218.2288 c 0,-72.0757 42.0441,-138.1449 112.1175,-164.1723 130.1365,-52.0546 236.2478,-232.2436 288.3025,-450.4724 34.0357,-138.1449 44.0461,-290.3045 26.0272,-430.4515 -18.0189,-134.1407 -62.065,-258.2709 -138.1449,-354.3717 -90.0944,-114.1198 -234.2456,-188.1975 -440.4619,-188.1975 -208.2184,0 -350.3674,74.0777 -440.462,188.1975 -76.0797,96.1008 -120.126,220.231 -138.1449,354.3717 -18.0189,140.147 -8.0083,290.3045 26.0273,430.4515 50.0524,212.2226 152.1596,390.4094 280.294,446.4682 70.0734,24.0253 120.126,90.0945 120.126,168.1765 v 218.2288 c 0,78.0819 -52.0546,148.1554 -130.1365,170.1785 -166.1743,44.0462 -310.3255,86.0903 -436.4578,126.1323 z"
       id="path9" />
  </g>
</svg>
